<svg id="svg" xmlns="http://www.w3.org/2000/svg" xmlns:xlink="http://www.w3.org/1999/xlink" width="400" height="160.49004594180704" viewBox="0, 0, 400,160.49004594180704"><g id="svgg"><path id="path0" d="M45.942 0.618 C 31.838 1.740,19.010 10.014,9.663 24.017 C -5.134 46.186,-2.460 63.737,17.764 77.186 C 23.743 81.162,26.034 82.911,26.034 83.502 C 26.034 84.740,21.910 90.350,14.536 99.145 C 11.091 103.255,6.478 111.623,4.778 116.849 C 0.561 129.814,4.834 141.438,16.749 149.409 C 19.292 151.110,22.905 153.139,23.390 153.139 C 23.495 153.139,24.650 153.634,25.956 154.239 C 32.041 157.055,34.225 157.747,41.960 159.309 C 56.224 162.191,71.512 159.337,85.234 151.233 C 92.953 146.674,95.025 144.757,111.945 126.520 C 123.462 114.107,126.597 112.208,141.501 108.622 C 164.077 103.189,177.448 101.009,193.415 100.156 C 196.784 99.976,201.057 99.697,202.910 99.537 C 204.763 99.376,208.691 99.166,211.639 99.069 C 214.587 98.972,217.529 98.823,218.178 98.738 C 226.261 97.677,257.008 100.607,268.453 103.530 C 283.178 107.289,287.754 110.741,291.138 120.638 C 304.367 159.336,352.026 170.016,381.307 140.844 C 401.768 120.459,401.996 100.236,381.925 86.050 C 376.867 82.475,372.463 78.980,372.276 78.390 C 371.998 77.512,374.286 74.915,382.656 66.616 C 397.082 52.309,402.302 41.060,398.796 31.834 C 396.015 24.515,383.573 14.298,371.975 9.810 C 355.796 3.549,342.144 2.452,324.469 5.993 C 311.438 8.604,305.750 11.697,290.992 24.196 C 273.304 39.178,274.282 38.563,264.012 41.175 C 243.488 46.396,215.418 50.027,194.265 50.196 C 190.520 50.226,185.352 50.380,182.779 50.538 C 180.206 50.697,176.447 50.831,174.426 50.837 C 172.404 50.843,169.534 50.987,168.048 51.157 C 164.063 51.613,151.222 51.642,143.338 51.212 C 112.767 49.543,104.591 46.263,101.198 34.303 C 95.327 13.613,70.771 -1.357,45.942 0.618 M56.968 5.026 C 68.888 7.019,72.685 9.009,86.281 20.392 C 89.751 23.297,91.971 27.390,93.410 33.538 C 96.169 45.330,104.683 52.072,120.061 54.644 C 132.570 56.736,160.014 57.255,177.642 55.733 C 179.410 55.580,182.925 55.381,185.452 55.291 C 187.979 55.200,194.043 54.986,198.928 54.813 C 211.037 54.387,216.489 53.903,233.461 51.746 C 239.109 51.029,247.259 49.696,253.292 48.504 C 256.240 47.922,260.375 47.249,262.481 47.009 C 266.339 46.570,268.232 46.322,274.119 45.481 C 279.259 44.747,279.613 44.692,283.155 44.063 C 291.213 42.632,295.624 41.612,295.780 41.144 C 295.942 40.657,293.549 40.429,288.242 40.427 L 283.461 40.426 285.452 38.669 C 286.547 37.703,289.372 35.118,291.730 32.926 C 308.366 17.461,316.634 12.405,331.853 8.393 C 341.047 5.970,355.007 7.365,365.850 11.792 C 366.861 12.205,369.135 13.040,370.904 13.649 C 380.577 16.977,386.605 21.521,389.427 27.613 C 392.630 34.525,390.011 46.012,383.225 54.822 C 379.979 59.036,378.022 61.224,373.500 65.697 C 366.042 73.075,363.727 76.663,361.449 84.380 C 359.526 90.894,360.002 94.168,363.524 98.642 L 364.625 100.041 364.625 96.192 C 364.625 89.721,366.694 84.839,369.438 84.839 C 371.191 84.839,378.822 90.698,382.237 94.666 C 393.638 107.913,391.558 120.314,375.056 137.470 C 358.326 154.862,331.929 157.764,316.277 143.931 C 312.781 140.841,309.385 135.698,304.634 126.294 C 294.256 105.754,287.842 100.258,270.400 96.960 C 253.355 93.736,231.608 93.003,211.332 94.969 C 209.564 95.140,202.534 95.402,195.712 95.551 C 188.890 95.700,182.136 95.965,180.704 96.139 C 173.626 96.999,165.504 98.299,158.499 99.692 C 156.478 100.094,152.205 100.842,149.005 101.355 C 145.804 101.867,142.496 102.415,141.654 102.571 C 140.812 102.728,139.296 103.005,138.285 103.187 C 121.718 106.173,104.416 110.473,105.816 111.257 C 106.403 111.586,116.248 111.359,118.034 110.976 C 118.972 110.774,119.093 111.368,118.205 111.819 C 113.578 114.167,111.130 116.195,107.145 120.980 C 102.139 126.992,100.510 128.855,96.722 132.903 C 77.912 153.001,61.553 158.700,39.969 152.676 C 18.666 146.731,10.401 139.480,10.296 126.646 C 10.250 120.937,11.267 118.237,16.184 111.026 C 20.067 105.333,21.483 103.447,23.429 101.378 C 35.009 89.074,40.500 64.555,32.621 60.338 C 31.540 59.760,31.501 59.921,32.060 62.652 C 33.206 68.256,30.751 76.570,27.950 76.570 C 27.226 76.570,23.285 73.957,19.564 71.011 C 9.888 63.350,5.840 54.020,7.956 44.257 C 10.632 31.919,14.738 24.483,24.037 15.142 C 32.545 6.593,44.456 2.934,56.968 5.026 " stroke="none" fill="#000000" fill-rule="evenodd"></path></g></svg>
